solid ascii
 facet normal 0.221581 0.0917818 0.970813
  outer loop
   vertex 0.165027 -0.144794 1.07205
   vertex 0.152319 -0.114114 1.07205
   vertex 0.121639 -0.144794 1.08196
  endloop
 endfacet
 facet normal 0.0917818 0.221581 0.970813
  outer loop
   vertex 0.152319 -0.114114 1.07205
   vertex 0.121639 -0.101406 1.07205
   vertex 0.121639 -0.144794 1.08196
  endloop
 endfacet
 facet normal -0.0917818 0.221581 0.970813
  outer loop
   vertex 0.121639 -0.101406 1.07205
   vertex 0.0909584 -0.114114 1.07205
   vertex 0.121639 -0.144794 1.08196
  endloop
 endfacet
 facet normal -0.221581 0.0917818 0.970813
  outer loop
   vertex 0.0909584 -0.114114 1.07205
   vertex 0.0782503 -0.144794 1.07205
   vertex 0.121639 -0.144794 1.08196
  endloop
 endfacet
 facet normal -0.221581 -0.0917818 0.970813
  outer loop
   vertex 0.0782503 -0.144794 1.07205
   vertex 0.0909584 -0.175475 1.07205
   vertex 0.121639 -0.144794 1.08196
  endloop
 endfacet
 facet normal -0.0917818 -0.221581 0.970813
  outer loop
   vertex 0.0909584 -0.175475 1.07205
   vertex 0.121639 -0.188183 1.07205
   vertex 0.121639 -0.144794 1.08196
  endloop
 endfacet
 facet normal 0.0917818 -0.221581 0.970813
  outer loop
   vertex 0.121639 -0.188183 1.07205
   vertex 0.152319 -0.175475 1.07205
   vertex 0.121639 -0.144794 1.08196
  endloop
 endfacet
 facet normal 0.221581 -0.0917818 0.970813
  outer loop
   vertex 0.152319 -0.175475 1.07205
   vertex 0.165027 -0.144794 1.07205
   vertex 0.121639 -0.144794 1.08196
  endloop
 endfacet
 facet normal 0.221582 0.0917823 -0.970813
  outer loop
   vertex 0.165027 -0.144794 0.89186
   vertex 0.121639 -0.144794 0.881957
   vertex 0.152319 -0.114114 0.89186
  endloop
 endfacet
 facet normal 0.0917823 0.221582 -0.970813
  outer loop
   vertex 0.152319 -0.114114 0.89186
   vertex 0.121639 -0.144794 0.881957
   vertex 0.121639 -0.101406 0.89186
  endloop
 endfacet
 facet normal -0.0917823 0.221582 -0.970813
  outer loop
   vertex 0.121639 -0.101406 0.89186
   vertex 0.121639 -0.144794 0.881957
   vertex 0.0909584 -0.114114 0.89186
  endloop
 endfacet
 facet normal -0.221582 0.0917823 -0.970813
  outer loop
   vertex 0.0909584 -0.114114 0.89186
   vertex 0.121639 -0.144794 0.881957
   vertex 0.0782503 -0.144794 0.89186
  endloop
 endfacet
 facet normal -0.221582 -0.0917823 -0.970813
  outer loop
   vertex 0.0782503 -0.144794 0.89186
   vertex 0.121639 -0.144794 0.881957
   vertex 0.0909584 -0.175475 0.89186
  endloop
 endfacet
 facet normal -0.0917823 -0.221582 -0.970813
  outer loop
   vertex 0.0909584 -0.175475 0.89186
   vertex 0.121639 -0.144794 0.881957
   vertex 0.121639 -0.188183 0.89186
  endloop
 endfacet
 facet normal 0.0917823 -0.221582 -0.970813
  outer loop
   vertex 0.121639 -0.188183 0.89186
   vertex 0.121639 -0.144794 0.881957
   vertex 0.152319 -0.175475 0.89186
  endloop
 endfacet
 facet normal 0.221582 -0.0917823 -0.970813
  outer loop
   vertex 0.152319 -0.175475 0.89186
   vertex 0.121639 -0.144794 0.881957
   vertex 0.165027 -0.144794 0.89186
  endloop
 endfacet
 facet normal 0.603682 0.250053 0.756995
  outer loop
   vertex 0.165027 -0.144794 1.07205
   vertex 0.199822 -0.144794 1.04431
   vertex 0.176922 -0.0895106 1.04431
  endloop
 endfacet
 facet normal 0.603682 0.250053 0.756995
  outer loop
   vertex 0.165027 -0.144794 1.07205
   vertex 0.176922 -0.0895106 1.04431
   vertex 0.152319 -0.114114 1.07205
  endloop
 endfacet
 facet normal 0.844104 0.349639 0.406499
  outer loop
   vertex 0.199822 -0.144794 1.04431
   vertex 0.219131 -0.144794 1.00421
   vertex 0.190576 -0.0758566 1.00421
  endloop
 endfacet
 facet normal 0.844104 0.349639 0.406499
  outer loop
   vertex 0.199822 -0.144794 1.04431
   vertex 0.190576 -0.0758566 1.00421
   vertex 0.176922 -0.0895106 1.04431
  endloop
 endfacet
 facet normal 0.92388 0.382683 -0
  outer loop
   vertex 0.219131 -0.144794 1.00421
   vertex 0.219131 -0.144794 0.959704
   vertex 0.190576 -0.0758566 0.959704
  endloop
 endfacet
 facet normal 0.92388 0.382683 -0
  outer loop
   vertex 0.219131 -0.144794 1.00421
   vertex 0.190576 -0.0758566 0.959704
   vertex 0.190576 -0.0758566 1.00421
  endloop
 endfacet
 facet normal 0.844104 0.349639 -0.406499
  outer loop
   vertex 0.219131 -0.144794 0.959704
   vertex 0.199822 -0.144794 0.919608
   vertex 0.176922 -0.0895106 0.919608
  endloop
 endfacet
 facet normal 0.844104 0.349639 -0.406499
  outer loop
   vertex 0.219131 -0.144794 0.959704
   vertex 0.176922 -0.0895106 0.919608
   vertex 0.190576 -0.0758566 0.959704
  endloop
 endfacet
 facet normal 0.603683 0.250054 -0.756994
  outer loop
   vertex 0.199822 -0.144794 0.919608
   vertex 0.165027 -0.144794 0.89186
   vertex 0.152319 -0.114114 0.89186
  endloop
 endfacet
 facet normal 0.603683 0.250054 -0.756994
  outer loop
   vertex 0.199822 -0.144794 0.919608
   vertex 0.152319 -0.114114 0.89186
   vertex 0.176922 -0.0895106 0.919608
  endloop
 endfacet
 facet normal 0.250053 0.603682 0.756995
  outer loop
   vertex 0.152319 -0.114114 1.07205
   vertex 0.176922 -0.0895106 1.04431
   vertex 0.121639 -0.0666113 1.04431
  endloop
 endfacet
 facet normal 0.250053 0.603682 0.756995
  outer loop
   vertex 0.152319 -0.114114 1.07205
   vertex 0.121639 -0.0666113 1.04431
   vertex 0.121639 -0.101406 1.07205
  endloop
 endfacet
 facet normal 0.349639 0.844104 0.406499
  outer loop
   vertex 0.176922 -0.0895106 1.04431
   vertex 0.190576 -0.0758566 1.00421
   vertex 0.121639 -0.0473017 1.00421
  endloop
 endfacet
 facet normal 0.349639 0.844104 0.406499
  outer loop
   vertex 0.176922 -0.0895106 1.04431
   vertex 0.121639 -0.0473017 1.00421
   vertex 0.121639 -0.0666113 1.04431
  endloop
 endfacet
 facet normal 0.382683 0.92388 -0
  outer loop
   vertex 0.190576 -0.0758566 1.00421
   vertex 0.190576 -0.0758566 0.959704
   vertex 0.121639 -0.0473017 0.959704
  endloop
 endfacet
 facet normal 0.382683 0.92388 -0
  outer loop
   vertex 0.190576 -0.0758566 1.00421
   vertex 0.121639 -0.0473017 0.959704
   vertex 0.121639 -0.0473017 1.00421
  endloop
 endfacet
 facet normal 0.349639 0.844104 -0.406499
  outer loop
   vertex 0.190576 -0.0758566 0.959704
   vertex 0.176922 -0.0895106 0.919608
   vertex 0.121639 -0.0666113 0.919608
  endloop
 endfacet
 facet normal 0.349639 0.844104 -0.406499
  outer loop
   vertex 0.190576 -0.0758566 0.959704
   vertex 0.121639 -0.0666113 0.919608
   vertex 0.121639 -0.0473017 0.959704
  endloop
 endfacet
 facet normal 0.250054 0.603683 -0.756994
  outer loop
   vertex 0.176922 -0.0895106 0.919608
   vertex 0.152319 -0.114114 0.89186
   vertex 0.121639 -0.101406 0.89186
  endloop
 endfacet
 facet normal 0.250054 0.603683 -0.756994
  outer loop
   vertex 0.176922 -0.0895106 0.919608
   vertex 0.121639 -0.101406 0.89186
   vertex 0.121639 -0.0666113 0.919608
  endloop
 endfacet
 facet normal -0.250053 0.603682 0.756995
  outer loop
   vertex 0.121639 -0.101406 1.07205
   vertex 0.121639 -0.0666113 1.04431
   vertex 0.0663548 -0.0895106 1.04431
  endloop
 endfacet
 facet normal -0.250053 0.603682 0.756995
  outer loop
   vertex 0.121639 -0.101406 1.07205
   vertex 0.0663548 -0.0895106 1.04431
   vertex 0.0909584 -0.114114 1.07205
  endloop
 endfacet
 facet normal -0.349639 0.844104 0.406499
  outer loop
   vertex 0.121639 -0.0666113 1.04431
   vertex 0.121639 -0.0473017 1.00421
   vertex 0.0527008 -0.0758566 1.00421
  endloop
 endfacet
 facet normal -0.349639 0.844104 0.406499
  outer loop
   vertex 0.121639 -0.0666113 1.04431
   vertex 0.0527008 -0.0758566 1.00421
   vertex 0.0663548 -0.0895106 1.04431
  endloop
 endfacet
 facet normal -0.382683 0.92388 0
  outer loop
   vertex 0.121639 -0.0473017 1.00421
   vertex 0.121639 -0.0473017 0.959704
   vertex 0.0527008 -0.0758566 0.959704
  endloop
 endfacet
 facet normal -0.382683 0.92388 0
  outer loop
   vertex 0.121639 -0.0473017 1.00421
   vertex 0.0527008 -0.0758566 0.959704
   vertex 0.0527008 -0.0758566 1.00421
  endloop
 endfacet
 facet normal -0.349639 0.844104 -0.406499
  outer loop
   vertex 0.121639 -0.0473017 0.959704
   vertex 0.121639 -0.0666113 0.919608
   vertex 0.0663548 -0.0895106 0.919608
  endloop
 endfacet
 facet normal -0.349639 0.844104 -0.406499
  outer loop
   vertex 0.121639 -0.0473017 0.959704
   vertex 0.0663548 -0.0895106 0.919608
   vertex 0.0527008 -0.0758566 0.959704
  endloop
 endfacet
 facet normal -0.250054 0.603683 -0.756994
  outer loop
   vertex 0.121639 -0.0666113 0.919608
   vertex 0.121639 -0.101406 0.89186
   vertex 0.0909584 -0.114114 0.89186
  endloop
 endfacet
 facet normal -0.250054 0.603683 -0.756994
  outer loop
   vertex 0.121639 -0.0666113 0.919608
   vertex 0.0909584 -0.114114 0.89186
   vertex 0.0663548 -0.0895106 0.919608
  endloop
 endfacet
 facet normal -0.603682 0.250053 0.756995
  outer loop
   vertex 0.0909584 -0.114114 1.07205
   vertex 0.0663548 -0.0895106 1.04431
   vertex 0.0434555 -0.144794 1.04431
  endloop
 endfacet
 facet normal -0.603682 0.250053 0.756995
  outer loop
   vertex 0.0909584 -0.114114 1.07205
   vertex 0.0434555 -0.144794 1.04431
   vertex 0.0782503 -0.144794 1.07205
  endloop
 endfacet
 facet normal -0.844104 0.349639 0.406499
  outer loop
   vertex 0.0663548 -0.0895106 1.04431
   vertex 0.0527008 -0.0758566 1.00421
   vertex 0.0241459 -0.144794 1.00421
  endloop
 endfacet
 facet normal -0.844104 0.349639 0.406499
  outer loop
   vertex 0.0663548 -0.0895106 1.04431
   vertex 0.0241459 -0.144794 1.00421
   vertex 0.0434555 -0.144794 1.04431
  endloop
 endfacet
 facet normal -0.92388 0.382683 0
  outer loop
   vertex 0.0527008 -0.0758566 1.00421
   vertex 0.0527008 -0.0758566 0.959704
   vertex 0.0241459 -0.144794 0.959704
  endloop
 endfacet
 facet normal -0.92388 0.382683 0
  outer loop
   vertex 0.0527008 -0.0758566 1.00421
   vertex 0.0241459 -0.144794 0.959704
   vertex 0.0241459 -0.144794 1.00421
  endloop
 endfacet
 facet normal -0.844104 0.349639 -0.406499
  outer loop
   vertex 0.0527008 -0.0758566 0.959704
   vertex 0.0663548 -0.0895106 0.919608
   vertex 0.0434555 -0.144794 0.919608
  endloop
 endfacet
 facet normal -0.844104 0.349639 -0.406499
  outer loop
   vertex 0.0527008 -0.0758566 0.959704
   vertex 0.0434555 -0.144794 0.919608
   vertex 0.0241459 -0.144794 0.959704
  endloop
 endfacet
 facet normal -0.603683 0.250054 -0.756994
  outer loop
   vertex 0.0663548 -0.0895106 0.919608
   vertex 0.0909584 -0.114114 0.89186
   vertex 0.0782503 -0.144794 0.89186
  endloop
 endfacet
 facet normal -0.603683 0.250054 -0.756994
  outer loop
   vertex 0.0663548 -0.0895106 0.919608
   vertex 0.0782503 -0.144794 0.89186
   vertex 0.0434555 -0.144794 0.919608
  endloop
 endfacet
 facet normal -0.603682 -0.250053 0.756995
  outer loop
   vertex 0.0782503 -0.144794 1.07205
   vertex 0.0434555 -0.144794 1.04431
   vertex 0.0663548 -0.200078 1.04431
  endloop
 endfacet
 facet normal -0.603682 -0.250053 0.756995
  outer loop
   vertex 0.0782503 -0.144794 1.07205
   vertex 0.0663548 -0.200078 1.04431
   vertex 0.0909584 -0.175475 1.07205
  endloop
 endfacet
 facet normal -0.844104 -0.349639 0.406499
  outer loop
   vertex 0.0434555 -0.144794 1.04431
   vertex 0.0241459 -0.144794 1.00421
   vertex 0.0527008 -0.213732 1.00421
  endloop
 endfacet
 facet normal -0.844104 -0.349639 0.406499
  outer loop
   vertex 0.0434555 -0.144794 1.04431
   vertex 0.0527008 -0.213732 1.00421
   vertex 0.0663548 -0.200078 1.04431
  endloop
 endfacet
 facet normal -0.92388 -0.382683 0
  outer loop
   vertex 0.0241459 -0.144794 1.00421
   vertex 0.0241459 -0.144794 0.959704
   vertex 0.0527008 -0.213732 0.959704
  endloop
 endfacet
 facet normal -0.92388 -0.382683 0
  outer loop
   vertex 0.0241459 -0.144794 1.00421
   vertex 0.0527008 -0.213732 0.959704
   vertex 0.0527008 -0.213732 1.00421
  endloop
 endfacet
 facet normal -0.844104 -0.349639 -0.406499
  outer loop
   vertex 0.0241459 -0.144794 0.959704
   vertex 0.0434555 -0.144794 0.919608
   vertex 0.0663548 -0.200078 0.919608
  endloop
 endfacet
 facet normal -0.844104 -0.349639 -0.406499
  outer loop
   vertex 0.0241459 -0.144794 0.959704
   vertex 0.0663548 -0.200078 0.919608
   vertex 0.0527008 -0.213732 0.959704
  endloop
 endfacet
 facet normal -0.603683 -0.250054 -0.756994
  outer loop
   vertex 0.0434555 -0.144794 0.919608
   vertex 0.0782503 -0.144794 0.89186
   vertex 0.0909584 -0.175475 0.89186
  endloop
 endfacet
 facet normal -0.603683 -0.250054 -0.756994
  outer loop
   vertex 0.0434555 -0.144794 0.919608
   vertex 0.0909584 -0.175475 0.89186
   vertex 0.0663548 -0.200078 0.919608
  endloop
 endfacet
 facet normal -0.250053 -0.603682 0.756995
  outer loop
   vertex 0.0909584 -0.175475 1.07205
   vertex 0.0663548 -0.200078 1.04431
   vertex 0.121639 -0.222978 1.04431
  endloop
 endfacet
 facet normal -0.250053 -0.603682 0.756995
  outer loop
   vertex 0.0909584 -0.175475 1.07205
   vertex 0.121639 -0.222978 1.04431
   vertex 0.121639 -0.188183 1.07205
  endloop
 endfacet
 facet normal -0.349639 -0.844104 0.406499
  outer loop
   vertex 0.0663548 -0.200078 1.04431
   vertex 0.0527008 -0.213732 1.00421
   vertex 0.121639 -0.242287 1.00421
  endloop
 endfacet
 facet normal -0.349639 -0.844104 0.406499
  outer loop
   vertex 0.0663548 -0.200078 1.04431
   vertex 0.121639 -0.242287 1.00421
   vertex 0.121639 -0.222978 1.04431
  endloop
 endfacet
 facet normal -0.382683 -0.92388 0
  outer loop
   vertex 0.0527008 -0.213732 1.00421
   vertex 0.0527008 -0.213732 0.959704
   vertex 0.121639 -0.242287 0.959704
  endloop
 endfacet
 facet normal -0.382683 -0.92388 0
  outer loop
   vertex 0.0527008 -0.213732 1.00421
   vertex 0.121639 -0.242287 0.959704
   vertex 0.121639 -0.242287 1.00421
  endloop
 endfacet
 facet normal -0.349639 -0.844104 -0.406499
  outer loop
   vertex 0.0527008 -0.213732 0.959704
   vertex 0.0663548 -0.200078 0.919608
   vertex 0.121639 -0.222978 0.919608
  endloop
 endfacet
 facet normal -0.349639 -0.844104 -0.406499
  outer loop
   vertex 0.0527008 -0.213732 0.959704
   vertex 0.121639 -0.222978 0.919608
   vertex 0.121639 -0.242287 0.959704
  endloop
 endfacet
 facet normal -0.250054 -0.603683 -0.756994
  outer loop
   vertex 0.0663548 -0.200078 0.919608
   vertex 0.0909584 -0.175475 0.89186
   vertex 0.121639 -0.188183 0.89186
  endloop
 endfacet
 facet normal -0.250054 -0.603683 -0.756994
  outer loop
   vertex 0.0663548 -0.200078 0.919608
   vertex 0.121639 -0.188183 0.89186
   vertex 0.121639 -0.222978 0.919608
  endloop
 endfacet
 facet normal 0.250053 -0.603682 0.756995
  outer loop
   vertex 0.121639 -0.188183 1.07205
   vertex 0.121639 -0.222978 1.04431
   vertex 0.176922 -0.200078 1.04431
  endloop
 endfacet
 facet normal 0.250053 -0.603682 0.756995
  outer loop
   vertex 0.121639 -0.188183 1.07205
   vertex 0.176922 -0.200078 1.04431
   vertex 0.152319 -0.175475 1.07205
  endloop
 endfacet
 facet normal 0.349639 -0.844104 0.406499
  outer loop
   vertex 0.121639 -0.222978 1.04431
   vertex 0.121639 -0.242287 1.00421
   vertex 0.190576 -0.213732 1.00421
  endloop
 endfacet
 facet normal 0.349639 -0.844104 0.406499
  outer loop
   vertex 0.121639 -0.222978 1.04431
   vertex 0.190576 -0.213732 1.00421
   vertex 0.176922 -0.200078 1.04431
  endloop
 endfacet
 facet normal 0.382683 -0.92388 0
  outer loop
   vertex 0.121639 -0.242287 1.00421
   vertex 0.121639 -0.242287 0.959704
   vertex 0.190576 -0.213732 0.959704
  endloop
 endfacet
 facet normal 0.382683 -0.92388 0
  outer loop
   vertex 0.121639 -0.242287 1.00421
   vertex 0.190576 -0.213732 0.959704
   vertex 0.190576 -0.213732 1.00421
  endloop
 endfacet
 facet normal 0.349639 -0.844104 -0.406499
  outer loop
   vertex 0.121639 -0.242287 0.959704
   vertex 0.121639 -0.222978 0.919608
   vertex 0.176922 -0.200078 0.919608
  endloop
 endfacet
 facet normal 0.349639 -0.844104 -0.406499
  outer loop
   vertex 0.121639 -0.242287 0.959704
   vertex 0.176922 -0.200078 0.919608
   vertex 0.190576 -0.213732 0.959704
  endloop
 endfacet
 facet normal 0.250054 -0.603683 -0.756994
  outer loop
   vertex 0.121639 -0.222978 0.919608
   vertex 0.121639 -0.188183 0.89186
   vertex 0.152319 -0.175475 0.89186
  endloop
 endfacet
 facet normal 0.250054 -0.603683 -0.756994
  outer loop
   vertex 0.121639 -0.222978 0.919608
   vertex 0.152319 -0.175475 0.89186
   vertex 0.176922 -0.200078 0.919608
  endloop
 endfacet
 facet normal 0.603682 -0.250053 0.756995
  outer loop
   vertex 0.152319 -0.175475 1.07205
   vertex 0.176922 -0.200078 1.04431
   vertex 0.199822 -0.144794 1.04431
  endloop
 endfacet
 facet normal 0.603682 -0.250053 0.756995
  outer loop
   vertex 0.152319 -0.175475 1.07205
   vertex 0.199822 -0.144794 1.04431
   vertex 0.165027 -0.144794 1.07205
  endloop
 endfacet
 facet normal 0.844104 -0.349639 0.406499
  outer loop
   vertex 0.176922 -0.200078 1.04431
   vertex 0.190576 -0.213732 1.00421
   vertex 0.219131 -0.144794 1.00421
  endloop
 endfacet
 facet normal 0.844104 -0.349639 0.406499
  outer loop
   vertex 0.176922 -0.200078 1.04431
   vertex 0.219131 -0.144794 1.00421
   vertex 0.199822 -0.144794 1.04431
  endloop
 endfacet
 facet normal 0.92388 -0.382683 0
  outer loop
   vertex 0.190576 -0.213732 1.00421
   vertex 0.190576 -0.213732 0.959704
   vertex 0.219131 -0.144794 0.959704
  endloop
 endfacet
 facet normal 0.92388 -0.382683 0
  outer loop
   vertex 0.190576 -0.213732 1.00421
   vertex 0.219131 -0.144794 0.959704
   vertex 0.219131 -0.144794 1.00421
  endloop
 endfacet
 facet normal 0.844104 -0.349639 -0.406499
  outer loop
   vertex 0.190576 -0.213732 0.959704
   vertex 0.176922 -0.200078 0.919608
   vertex 0.199822 -0.144794 0.919608
  endloop
 endfacet
 facet normal 0.844104 -0.349639 -0.406499
  outer loop
   vertex 0.190576 -0.213732 0.959704
   vertex 0.199822 -0.144794 0.919608
   vertex 0.219131 -0.144794 0.959704
  endloop
 endfacet
 facet normal 0.603683 -0.250054 -0.756994
  outer loop
   vertex 0.176922 -0.200078 0.919608
   vertex 0.152319 -0.175475 0.89186
   vertex 0.165027 -0.144794 0.89186
  endloop
 endfacet
 facet normal 0.603683 -0.250054 -0.756994
  outer loop
   vertex 0.176922 -0.200078 0.919608
   vertex 0.165027 -0.144794 0.89186
   vertex 0.199822 -0.144794 0.919608
  endloop
 endfacet
endsolid
