solid ascii
 facet normal 0.221582 0.0917821 0.970813
  outer loop
   vertex -0.692736 0.452396 0.593544
   vertex -0.705444 0.483076 0.593544
   vertex -0.736124 0.452396 0.603447
  endloop
 endfacet
 facet normal 0.0917822 0.221582 0.970813
  outer loop
   vertex -0.705444 0.483076 0.593544
   vertex -0.736124 0.495784 0.593544
   vertex -0.736124 0.452396 0.603447
  endloop
 endfacet
 facet normal -0.0917822 0.221582 0.970813
  outer loop
   vertex -0.736124 0.495784 0.593544
   vertex -0.766804 0.483076 0.593544
   vertex -0.736124 0.452396 0.603447
  endloop
 endfacet
 facet normal -0.221582 0.0917821 0.970813
  outer loop
   vertex -0.766804 0.483076 0.593544
   vertex -0.779513 0.452396 0.593544
   vertex -0.736124 0.452396 0.603447
  endloop
 endfacet
 facet normal -0.221582 -0.0917821 0.970813
  outer loop
   vertex -0.779513 0.452396 0.593544
   vertex -0.766804 0.421716 0.593544
   vertex -0.736124 0.452396 0.603447
  endloop
 endfacet
 facet normal -0.0917822 -0.221582 0.970813
  outer loop
   vertex -0.766804 0.421716 0.593544
   vertex -0.736124 0.409007 0.593544
   vertex -0.736124 0.452396 0.603447
  endloop
 endfacet
 facet normal 0.0917822 -0.221582 0.970813
  outer loop
   vertex -0.736124 0.409007 0.593544
   vertex -0.705444 0.421716 0.593544
   vertex -0.736124 0.452396 0.603447
  endloop
 endfacet
 facet normal 0.221582 -0.0917821 0.970813
  outer loop
   vertex -0.705444 0.421716 0.593544
   vertex -0.692736 0.452396 0.593544
   vertex -0.736124 0.452396 0.603447
  endloop
 endfacet
 facet normal 0.221582 0.0917818 -0.970813
  outer loop
   vertex -0.692736 0.452396 0.41335
   vertex -0.736124 0.452396 0.403447
   vertex -0.705444 0.483076 0.41335
  endloop
 endfacet
 facet normal 0.091782 0.221582 -0.970813
  outer loop
   vertex -0.705444 0.483076 0.41335
   vertex -0.736124 0.452396 0.403447
   vertex -0.736124 0.495784 0.41335
  endloop
 endfacet
 facet normal -0.091782 0.221582 -0.970813
  outer loop
   vertex -0.736124 0.495784 0.41335
   vertex -0.736124 0.452396 0.403447
   vertex -0.766804 0.483076 0.41335
  endloop
 endfacet
 facet normal -0.221582 0.0917818 -0.970813
  outer loop
   vertex -0.766804 0.483076 0.41335
   vertex -0.736124 0.452396 0.403447
   vertex -0.779513 0.452396 0.41335
  endloop
 endfacet
 facet normal -0.221582 -0.0917818 -0.970813
  outer loop
   vertex -0.779513 0.452396 0.41335
   vertex -0.736124 0.452396 0.403447
   vertex -0.766804 0.421716 0.41335
  endloop
 endfacet
 facet normal -0.091782 -0.221582 -0.970813
  outer loop
   vertex -0.766804 0.421716 0.41335
   vertex -0.736124 0.452396 0.403447
   vertex -0.736124 0.409007 0.41335
  endloop
 endfacet
 facet normal 0.091782 -0.221582 -0.970813
  outer loop
   vertex -0.736124 0.409007 0.41335
   vertex -0.736124 0.452396 0.403447
   vertex -0.705444 0.421716 0.41335
  endloop
 endfacet
 facet normal 0.221582 -0.0917818 -0.970813
  outer loop
   vertex -0.705444 0.421716 0.41335
   vertex -0.736124 0.452396 0.403447
   vertex -0.692736 0.452396 0.41335
  endloop
 endfacet
 facet normal 0.603683 0.250054 0.756994
  outer loop
   vertex -0.692736 0.452396 0.593544
   vertex -0.657941 0.452396 0.565796
   vertex -0.68084 0.50768 0.565796
  endloop
 endfacet
 facet normal 0.603684 0.250053 0.756994
  outer loop
   vertex -0.692736 0.452396 0.593544
   vertex -0.68084 0.50768 0.565796
   vertex -0.705444 0.483076 0.593544
  endloop
 endfacet
 facet normal 0.844104 0.349639 0.406499
  outer loop
   vertex -0.657941 0.452396 0.565796
   vertex -0.638631 0.452396 0.525699
   vertex -0.667186 0.521334 0.525699
  endloop
 endfacet
 facet normal 0.844103 0.349639 0.406499
  outer loop
   vertex -0.657941 0.452396 0.565796
   vertex -0.667186 0.521334 0.525699
   vertex -0.68084 0.50768 0.565796
  endloop
 endfacet
 facet normal 0.92388 0.382683 -0
  outer loop
   vertex -0.638631 0.452396 0.525699
   vertex -0.638631 0.452396 0.481195
   vertex -0.667186 0.521334 0.481195
  endloop
 endfacet
 facet normal 0.92388 0.382683 -0
  outer loop
   vertex -0.638631 0.452396 0.525699
   vertex -0.667186 0.521334 0.481195
   vertex -0.667186 0.521334 0.525699
  endloop
 endfacet
 facet normal 0.844104 0.34964 -0.406499
  outer loop
   vertex -0.638631 0.452396 0.481195
   vertex -0.657941 0.452396 0.441098
   vertex -0.68084 0.50768 0.441098
  endloop
 endfacet
 facet normal 0.844104 0.349639 -0.406499
  outer loop
   vertex -0.638631 0.452396 0.481195
   vertex -0.68084 0.50768 0.441098
   vertex -0.667186 0.521334 0.481195
  endloop
 endfacet
 facet normal 0.603682 0.250053 -0.756995
  outer loop
   vertex -0.657941 0.452396 0.441098
   vertex -0.692736 0.452396 0.41335
   vertex -0.705444 0.483076 0.41335
  endloop
 endfacet
 facet normal 0.603683 0.250054 -0.756994
  outer loop
   vertex -0.657941 0.452396 0.441098
   vertex -0.705444 0.483076 0.41335
   vertex -0.68084 0.50768 0.441098
  endloop
 endfacet
 facet normal 0.250054 0.603683 0.756994
  outer loop
   vertex -0.705444 0.483076 0.593544
   vertex -0.68084 0.50768 0.565796
   vertex -0.736124 0.530579 0.565796
  endloop
 endfacet
 facet normal 0.250053 0.603683 0.756994
  outer loop
   vertex -0.705444 0.483076 0.593544
   vertex -0.736124 0.530579 0.565796
   vertex -0.736124 0.495784 0.593544
  endloop
 endfacet
 facet normal 0.349639 0.844104 0.406499
  outer loop
   vertex -0.68084 0.50768 0.565796
   vertex -0.667186 0.521334 0.525699
   vertex -0.736124 0.549889 0.525699
  endloop
 endfacet
 facet normal 0.349639 0.844104 0.406499
  outer loop
   vertex -0.68084 0.50768 0.565796
   vertex -0.736124 0.549889 0.525699
   vertex -0.736124 0.530579 0.565796
  endloop
 endfacet
 facet normal 0.382683 0.92388 -0
  outer loop
   vertex -0.667186 0.521334 0.525699
   vertex -0.667186 0.521334 0.481195
   vertex -0.736124 0.549889 0.481195
  endloop
 endfacet
 facet normal 0.382683 0.92388 -0
  outer loop
   vertex -0.667186 0.521334 0.525699
   vertex -0.736124 0.549889 0.481195
   vertex -0.736124 0.549889 0.525699
  endloop
 endfacet
 facet normal 0.349639 0.844104 -0.406499
  outer loop
   vertex -0.667186 0.521334 0.481195
   vertex -0.68084 0.50768 0.441098
   vertex -0.736124 0.530579 0.441098
  endloop
 endfacet
 facet normal 0.349639 0.844104 -0.406499
  outer loop
   vertex -0.667186 0.521334 0.481195
   vertex -0.736124 0.530579 0.441098
   vertex -0.736124 0.549889 0.481195
  endloop
 endfacet
 facet normal 0.250053 0.603683 -0.756994
  outer loop
   vertex -0.68084 0.50768 0.441098
   vertex -0.705444 0.483076 0.41335
   vertex -0.736124 0.495784 0.41335
  endloop
 endfacet
 facet normal 0.250054 0.603683 -0.756994
  outer loop
   vertex -0.68084 0.50768 0.441098
   vertex -0.736124 0.495784 0.41335
   vertex -0.736124 0.530579 0.441098
  endloop
 endfacet
 facet normal -0.250054 0.603683 0.756994
  outer loop
   vertex -0.736124 0.495784 0.593544
   vertex -0.736124 0.530579 0.565796
   vertex -0.791408 0.50768 0.565796
  endloop
 endfacet
 facet normal -0.250054 0.603683 0.756994
  outer loop
   vertex -0.736124 0.495784 0.593544
   vertex -0.791408 0.50768 0.565796
   vertex -0.766804 0.483076 0.593544
  endloop
 endfacet
 facet normal -0.349639 0.844104 0.406499
  outer loop
   vertex -0.736124 0.530579 0.565796
   vertex -0.736124 0.549889 0.525699
   vertex -0.805062 0.521334 0.525699
  endloop
 endfacet
 facet normal -0.349639 0.844103 0.406499
  outer loop
   vertex -0.736124 0.530579 0.565796
   vertex -0.805062 0.521334 0.525699
   vertex -0.791408 0.50768 0.565796
  endloop
 endfacet
 facet normal -0.382683 0.92388 0
  outer loop
   vertex -0.736124 0.549889 0.525699
   vertex -0.736124 0.549889 0.481195
   vertex -0.805062 0.521334 0.481195
  endloop
 endfacet
 facet normal -0.382683 0.92388 0
  outer loop
   vertex -0.736124 0.549889 0.525699
   vertex -0.805062 0.521334 0.481195
   vertex -0.805062 0.521334 0.525699
  endloop
 endfacet
 facet normal -0.349639 0.844104 -0.406499
  outer loop
   vertex -0.736124 0.549889 0.481195
   vertex -0.736124 0.530579 0.441098
   vertex -0.791408 0.50768 0.441098
  endloop
 endfacet
 facet normal -0.349639 0.844104 -0.406499
  outer loop
   vertex -0.736124 0.549889 0.481195
   vertex -0.791408 0.50768 0.441098
   vertex -0.805062 0.521334 0.481195
  endloop
 endfacet
 facet normal -0.250053 0.603683 -0.756994
  outer loop
   vertex -0.736124 0.530579 0.441098
   vertex -0.736124 0.495784 0.41335
   vertex -0.766804 0.483076 0.41335
  endloop
 endfacet
 facet normal -0.250054 0.603683 -0.756994
  outer loop
   vertex -0.736124 0.530579 0.441098
   vertex -0.766804 0.483076 0.41335
   vertex -0.791408 0.50768 0.441098
  endloop
 endfacet
 facet normal -0.603683 0.250054 0.756994
  outer loop
   vertex -0.766804 0.483076 0.593544
   vertex -0.791408 0.50768 0.565796
   vertex -0.814307 0.452396 0.565796
  endloop
 endfacet
 facet normal -0.603683 0.250053 0.756994
  outer loop
   vertex -0.766804 0.483076 0.593544
   vertex -0.814307 0.452396 0.565796
   vertex -0.779513 0.452396 0.593544
  endloop
 endfacet
 facet normal -0.844104 0.349639 0.406499
  outer loop
   vertex -0.791408 0.50768 0.565796
   vertex -0.805062 0.521334 0.525699
   vertex -0.833617 0.452396 0.525699
  endloop
 endfacet
 facet normal -0.844104 0.34964 0.406499
  outer loop
   vertex -0.791408 0.50768 0.565796
   vertex -0.833617 0.452396 0.525699
   vertex -0.814307 0.452396 0.565796
  endloop
 endfacet
 facet normal -0.92388 0.382683 0
  outer loop
   vertex -0.805062 0.521334 0.525699
   vertex -0.805062 0.521334 0.481195
   vertex -0.833617 0.452396 0.481195
  endloop
 endfacet
 facet normal -0.92388 0.382683 0
  outer loop
   vertex -0.805062 0.521334 0.525699
   vertex -0.833617 0.452396 0.481195
   vertex -0.833617 0.452396 0.525699
  endloop
 endfacet
 facet normal -0.844103 0.349639 -0.406499
  outer loop
   vertex -0.805062 0.521334 0.481195
   vertex -0.791408 0.50768 0.441098
   vertex -0.814307 0.452396 0.441098
  endloop
 endfacet
 facet normal -0.844104 0.349639 -0.406499
  outer loop
   vertex -0.805062 0.521334 0.481195
   vertex -0.814307 0.452396 0.441098
   vertex -0.833617 0.452396 0.481195
  endloop
 endfacet
 facet normal -0.603683 0.250053 -0.756994
  outer loop
   vertex -0.791408 0.50768 0.441098
   vertex -0.766804 0.483076 0.41335
   vertex -0.779513 0.452396 0.41335
  endloop
 endfacet
 facet normal -0.603682 0.250054 -0.756995
  outer loop
   vertex -0.791408 0.50768 0.441098
   vertex -0.779513 0.452396 0.41335
   vertex -0.814307 0.452396 0.441098
  endloop
 endfacet
 facet normal -0.603683 -0.250054 0.756994
  outer loop
   vertex -0.779513 0.452396 0.593544
   vertex -0.814307 0.452396 0.565796
   vertex -0.791408 0.397112 0.565796
  endloop
 endfacet
 facet normal -0.603683 -0.250053 0.756994
  outer loop
   vertex -0.779513 0.452396 0.593544
   vertex -0.791408 0.397112 0.565796
   vertex -0.766804 0.421716 0.593544
  endloop
 endfacet
 facet normal -0.844104 -0.349639 0.406499
  outer loop
   vertex -0.814307 0.452396 0.565796
   vertex -0.833617 0.452396 0.525699
   vertex -0.805062 0.383458 0.525699
  endloop
 endfacet
 facet normal -0.844104 -0.349639 0.406499
  outer loop
   vertex -0.814307 0.452396 0.565796
   vertex -0.805062 0.383458 0.525699
   vertex -0.791408 0.397112 0.565796
  endloop
 endfacet
 facet normal -0.92388 -0.382683 0
  outer loop
   vertex -0.833617 0.452396 0.525699
   vertex -0.833617 0.452396 0.481195
   vertex -0.805062 0.383458 0.481195
  endloop
 endfacet
 facet normal -0.92388 -0.382683 0
  outer loop
   vertex -0.833617 0.452396 0.525699
   vertex -0.805062 0.383458 0.481195
   vertex -0.805062 0.383458 0.525699
  endloop
 endfacet
 facet normal -0.844104 -0.349639 -0.406499
  outer loop
   vertex -0.833617 0.452396 0.481195
   vertex -0.814307 0.452396 0.441098
   vertex -0.791408 0.397112 0.441098
  endloop
 endfacet
 facet normal -0.844104 -0.349639 -0.406499
  outer loop
   vertex -0.833617 0.452396 0.481195
   vertex -0.791408 0.397112 0.441098
   vertex -0.805062 0.383458 0.481195
  endloop
 endfacet
 facet normal -0.603682 -0.250053 -0.756995
  outer loop
   vertex -0.814307 0.452396 0.441098
   vertex -0.779513 0.452396 0.41335
   vertex -0.766804 0.421716 0.41335
  endloop
 endfacet
 facet normal -0.603683 -0.250054 -0.756994
  outer loop
   vertex -0.814307 0.452396 0.441098
   vertex -0.766804 0.421716 0.41335
   vertex -0.791408 0.397112 0.441098
  endloop
 endfacet
 facet normal -0.250054 -0.603683 0.756994
  outer loop
   vertex -0.766804 0.421716 0.593544
   vertex -0.791408 0.397112 0.565796
   vertex -0.736124 0.374213 0.565796
  endloop
 endfacet
 facet normal -0.250053 -0.603683 0.756994
  outer loop
   vertex -0.766804 0.421716 0.593544
   vertex -0.736124 0.374213 0.565796
   vertex -0.736124 0.409007 0.593544
  endloop
 endfacet
 facet normal -0.349639 -0.844104 0.406499
  outer loop
   vertex -0.791408 0.397112 0.565796
   vertex -0.805062 0.383458 0.525699
   vertex -0.736124 0.354903 0.525699
  endloop
 endfacet
 facet normal -0.349639 -0.844104 0.406499
  outer loop
   vertex -0.791408 0.397112 0.565796
   vertex -0.736124 0.354903 0.525699
   vertex -0.736124 0.374213 0.565796
  endloop
 endfacet
 facet normal -0.382683 -0.92388 0
  outer loop
   vertex -0.805062 0.383458 0.525699
   vertex -0.805062 0.383458 0.481195
   vertex -0.736124 0.354903 0.481195
  endloop
 endfacet
 facet normal -0.382683 -0.92388 0
  outer loop
   vertex -0.805062 0.383458 0.525699
   vertex -0.736124 0.354903 0.481195
   vertex -0.736124 0.354903 0.525699
  endloop
 endfacet
 facet normal -0.349639 -0.844104 -0.406499
  outer loop
   vertex -0.805062 0.383458 0.481195
   vertex -0.791408 0.397112 0.441098
   vertex -0.736124 0.374213 0.441098
  endloop
 endfacet
 facet normal -0.349639 -0.844104 -0.406499
  outer loop
   vertex -0.805062 0.383458 0.481195
   vertex -0.736124 0.374213 0.441098
   vertex -0.736124 0.354903 0.481195
  endloop
 endfacet
 facet normal -0.250053 -0.603683 -0.756994
  outer loop
   vertex -0.791408 0.397112 0.441098
   vertex -0.766804 0.421716 0.41335
   vertex -0.736124 0.409007 0.41335
  endloop
 endfacet
 facet normal -0.250053 -0.603683 -0.756994
  outer loop
   vertex -0.791408 0.397112 0.441098
   vertex -0.736124 0.409007 0.41335
   vertex -0.736124 0.374213 0.441098
  endloop
 endfacet
 facet normal 0.250054 -0.603683 0.756994
  outer loop
   vertex -0.736124 0.409007 0.593544
   vertex -0.736124 0.374213 0.565796
   vertex -0.68084 0.397112 0.565796
  endloop
 endfacet
 facet normal 0.250053 -0.603683 0.756994
  outer loop
   vertex -0.736124 0.409007 0.593544
   vertex -0.68084 0.397112 0.565796
   vertex -0.705444 0.421716 0.593544
  endloop
 endfacet
 facet normal 0.349639 -0.844104 0.406499
  outer loop
   vertex -0.736124 0.374213 0.565796
   vertex -0.736124 0.354903 0.525699
   vertex -0.667186 0.383458 0.525699
  endloop
 endfacet
 facet normal 0.349639 -0.844104 0.406499
  outer loop
   vertex -0.736124 0.374213 0.565796
   vertex -0.667186 0.383458 0.525699
   vertex -0.68084 0.397112 0.565796
  endloop
 endfacet
 facet normal 0.382683 -0.92388 0
  outer loop
   vertex -0.736124 0.354903 0.525699
   vertex -0.736124 0.354903 0.481195
   vertex -0.667186 0.383458 0.481195
  endloop
 endfacet
 facet normal 0.382683 -0.92388 0
  outer loop
   vertex -0.736124 0.354903 0.525699
   vertex -0.667186 0.383458 0.481195
   vertex -0.667186 0.383458 0.525699
  endloop
 endfacet
 facet normal 0.349639 -0.844104 -0.406499
  outer loop
   vertex -0.736124 0.354903 0.481195
   vertex -0.736124 0.374213 0.441098
   vertex -0.68084 0.397112 0.441098
  endloop
 endfacet
 facet normal 0.349639 -0.844104 -0.406499
  outer loop
   vertex -0.736124 0.354903 0.481195
   vertex -0.68084 0.397112 0.441098
   vertex -0.667186 0.383458 0.481195
  endloop
 endfacet
 facet normal 0.250053 -0.603683 -0.756994
  outer loop
   vertex -0.736124 0.374213 0.441098
   vertex -0.736124 0.409007 0.41335
   vertex -0.705444 0.421716 0.41335
  endloop
 endfacet
 facet normal 0.250053 -0.603683 -0.756994
  outer loop
   vertex -0.736124 0.374213 0.441098
   vertex -0.705444 0.421716 0.41335
   vertex -0.68084 0.397112 0.441098
  endloop
 endfacet
 facet normal 0.603683 -0.250054 0.756994
  outer loop
   vertex -0.705444 0.421716 0.593544
   vertex -0.68084 0.397112 0.565796
   vertex -0.657941 0.452396 0.565796
  endloop
 endfacet
 facet normal 0.603683 -0.250053 0.756994
  outer loop
   vertex -0.705444 0.421716 0.593544
   vertex -0.657941 0.452396 0.565796
   vertex -0.692736 0.452396 0.593544
  endloop
 endfacet
 facet normal 0.844104 -0.349639 0.406499
  outer loop
   vertex -0.68084 0.397112 0.565796
   vertex -0.667186 0.383458 0.525699
   vertex -0.638631 0.452396 0.525699
  endloop
 endfacet
 facet normal 0.844104 -0.349639 0.406499
  outer loop
   vertex -0.68084 0.397112 0.565796
   vertex -0.638631 0.452396 0.525699
   vertex -0.657941 0.452396 0.565796
  endloop
 endfacet
 facet normal 0.92388 -0.382683 0
  outer loop
   vertex -0.667186 0.383458 0.525699
   vertex -0.667186 0.383458 0.481195
   vertex -0.638631 0.452396 0.481195
  endloop
 endfacet
 facet normal 0.92388 -0.382683 0
  outer loop
   vertex -0.667186 0.383458 0.525699
   vertex -0.638631 0.452396 0.481195
   vertex -0.638631 0.452396 0.525699
  endloop
 endfacet
 facet normal 0.844104 -0.349639 -0.406499
  outer loop
   vertex -0.667186 0.383458 0.481195
   vertex -0.68084 0.397112 0.441098
   vertex -0.657941 0.452396 0.441098
  endloop
 endfacet
 facet normal 0.844104 -0.349639 -0.406499
  outer loop
   vertex -0.667186 0.383458 0.481195
   vertex -0.657941 0.452396 0.441098
   vertex -0.638631 0.452396 0.481195
  endloop
 endfacet
 facet normal 0.603683 -0.250053 -0.756994
  outer loop
   vertex -0.68084 0.397112 0.441098
   vertex -0.705444 0.421716 0.41335
   vertex -0.692736 0.452396 0.41335
  endloop
 endfacet
 facet normal 0.603682 -0.250054 -0.756995
  outer loop
   vertex -0.68084 0.397112 0.441098
   vertex -0.692736 0.452396 0.41335
   vertex -0.657941 0.452396 0.441098
  endloop
 endfacet
endsolid
